<svg xmlns="http://www.w3.org/2000/svg" width="447.5376" height="135.3707" viewBox="0 0 447.5376 135.3707"><defs><style>.a{fill:#051d25;}</style></defs><title>logo</title><path class="a" d="M75.6748,56.0449q2.6895,0,2.69,2.0918v.4492q0,1.4941-3.6611,4.2579a13.1653,13.1653,0,0,0-4.707,5.6035L47.7314,124.4844a4.2183,4.2183,0,0,1-4.3335,3.2871H37.1216q-2.9906,0-4.4829-3.2871L6.0405,68.4473a20.0183,20.0183,0,0,0-4.0346-5.3789q-2.84-2.836-2.8394-4.4825v-.4492q0-2.0889,2.69-2.0918H26.811q2.5394,0,2.5406,2.2422v.4473a4.1375,4.1375,0,0,1-1.42,2.541A15.75,15.75,0,0,0,25.69,64.1895q-.8232,1.4208.0747,4.5566l18.38,46.4746L61.6284,70.84q1.1939-4.4853,0-6.2031A15.4325,15.4325,0,0,0,58.4155,61.35q-2.0171-1.5674-2.0171-2.6152v-.4473q0-2.2412,2.6895-2.2422Z" transform="translate(0.8335 -15.264)"/><path class="a" d="M86.1343,127.7715q-3.1384,0-3.1382-2.24v-.5976q0-1.3448,2.7646-3.8867a7.72,7.72,0,0,0,2.7642-5.8262V76.0684a9.3281,9.3281,0,0,0-2.7642-6.4239q-2.767-2.9883-2.7646-3.8867v-.4473q0-1.1952,2.69-2.6894l14.9429-7.4727q2.5393-1.043,3.96-.2246a2.9414,2.9414,0,0,1,1.4194,2.7657v57.5312a7.4381,7.4381,0,0,0,3.0635,5.8262q3.0608,2.543,3.0635,3.8867v.5976q0,2.2413-3.2876,2.24ZM97.1919,43.6426a12.7694,12.7694,0,0,1-8.9658-3.1387A10.4264,10.4264,0,0,1,84.79,32.4355a10.4335,10.4335,0,0,1,3.4365-8.07,12.7773,12.7773,0,0,1,8.9658-3.1367,12.2972,12.2972,0,0,1,8.7417,3.1367,10.5477,10.5477,0,0,1,3.3623,8.07,10.5405,10.5405,0,0,1-3.3623,8.0684A12.29,12.29,0,0,1,97.1919,43.6426Z" transform="translate(0.8335 -15.264)"/><path class="a" d="M124.8364,127.7715q-3.1384,0-3.1382-2.24v-.4492q0-1.4911,2.7647-4.0351a7.5837,7.5837,0,0,0,2.7642-5.6778v-78.75a8.9863,8.9863,0,0,0-2.7642-6.4257q-2.767-2.836-2.7647-3.7344V26.01q0-1.3447,2.5406-2.6895L139.3311,15.85q2.5392-1.0459,3.96-.2246A2.8024,2.8024,0,0,1,144.71,18.24v97.1289a7.5312,7.5312,0,0,0,3.0635,5.7539q3.0609,2.6163,3.0635,3.959v.4492q0,2.2413-3.2876,2.24Z" transform="translate(0.8335 -15.264)"/><path class="a" d="M231.08,117.91a18.1955,18.1955,0,0,0,4.3335,3.4355q3.2849,2.0948,3.2876,3.8867v.4473q0,2.0948-2.69,2.0918H211.9526q-2.5429,0-2.54-2.24v-.2988q0-1.3448,2.167-3.3633,2.1643-2.0155.6724-3.9589L193.124,92.3574l-10.1611,9.4141v13.5976a7.5309,7.5309,0,0,0,3.0635,5.7539q3.0608,2.6163,3.0634,3.959v.4492q0,2.2413-3.2876,2.24H163.0889q-3.1385,0-3.1382-2.24v-.4492q0-1.4911,2.7646-4.0351a7.5837,7.5837,0,0,0,2.7642-5.6778v-78.75a8.502,8.502,0,0,0-3.1377-6.4257q-3.1385-2.836-3.1382-3.7344V26.01q0-1.4913,2.54-2.6895l15.84-7.4707q2.5394-1.0459,3.96-.2246a2.8024,2.8024,0,0,1,1.4194,2.6152v73.668L209.86,68.4473q2.3883-2.0889-.523-5.4532-2.9136-3.3632-2.9141-4.26v-.4473q0-2.2412,2.69-2.2422H228.24q2.5394,0,2.5406,2.0918v.4492a3.7161,3.7161,0,0,1-1.7188,2.84,47.9763,47.9763,0,0,1-4.8564,3.2109,30.716,30.716,0,0,0-5.0806,3.6621L204.481,81.748Z" transform="translate(0.8335 -15.264)"/><path class="a" d="M283.08,54.5508q6.4233,0,10.0869,3.5859a12.0442,12.0442,0,0,1,3.6606,8.9668q0,9.4131-7.77,9.4141a6.87,6.87,0,0,1-5.08-1.793,7.811,7.811,0,0,1-2.2417-4.0351,8.3143,8.3143,0,0,0-2.0918-4.0352,5.7857,5.7857,0,0,0-4.483-1.793q-4.9314,0-7.621,5.3809a29.1809,29.1809,0,0,0-2.69,13.1484v31.9785q0,3.29,3.437,5.8282,3.4357,2.543,3.437,3.8847v.5977q0,2.0948-3.1382,2.0918H245.4238q-3.1385,0-3.1382-2.0918v-.5977q0-1.3447,2.8394-3.8847a7.6476,7.6476,0,0,0,2.8394-5.8282V75.1719a7.2724,7.2724,0,0,0-3.2129-5.9024q-3.2154-2.4638-3.2129-3.81v-.4473q0-1.6436,2.69-3.1387l14.6441-6.7246q4.3322-2.0888,4.3335,2.5411V69.3457Q268.2839,54.5508,283.08,54.5508Z" transform="translate(0.8335 -15.264)"/><path class="a" d="M305.9429,127.7715q-3.1385,0-3.1382-2.24v-.5976q0-1.3448,2.7646-3.8867a7.72,7.72,0,0,0,2.7642-5.8262V76.0684a9.3281,9.3281,0,0,0-2.7642-6.4239q-2.767-2.9883-2.7646-3.8867v-.4473q0-1.1952,2.69-2.6894l14.9429-7.4727q2.5394-1.043,3.96-.2246a2.9414,2.9414,0,0,1,1.4194,2.7657v57.5312a7.4381,7.4381,0,0,0,3.0635,5.8262q3.0607,2.543,3.0634,3.8867v.5976q0,2.2413-3.2876,2.24Zm11.0576-84.1289a12.7694,12.7694,0,0,1-8.9658-3.1387,10.4265,10.4265,0,0,1-3.4366-8.0684,10.4336,10.4336,0,0,1,3.4366-8.07,12.7773,12.7773,0,0,1,8.9658-3.1367,12.2972,12.2972,0,0,1,8.7417,3.1367,10.5477,10.5477,0,0,1,3.3623,8.07,10.5405,10.5405,0,0,1-3.3623,8.0684A12.29,12.29,0,0,1,317.0005,43.6426Z" transform="translate(0.8335 -15.264)"/><path class="a" d="M406.0605,56.0449a15.4884,15.4884,0,0,1,4.857.5977c1.144.4,1.7929.8965,1.9424,1.4941a3.0558,3.0558,0,0,1-.3736,2.0918,4.5724,4.5724,0,0,1-2.4658,2.541,19.6793,19.6793,0,0,1-4.9311,1.1953,38.416,38.416,0,0,0-4.2588.7481,29.1653,29.1653,0,0,1,6.7993,9.1152,24.44,24.44,0,0,1,2.6147,10.7578,27.7829,27.7829,0,0,1-4.6323,15.7657,30.0462,30.0462,0,0,1-12.7017,10.6836q18.5274,4.3359,18.53,17.9316,0,9.8643-10.1616,15.7656t-25.8511,5.9024q-15.9917,0-25.2539-6.5-9.2673-6.501-9.2646-15.168a7.0876,7.0876,0,0,1,1.8677-5.0059,6.8725,6.8725,0,0,1,5.3051-2.0175,6.2987,6.2987,0,0,1,5.0059,2.3925,23.9591,23.9591,0,0,1,3.5112,5.752,67.87,67.87,0,0,0,3.5117,6.7988,16.6341,16.6341,0,0,0,6.0523,5.8281,19.0524,19.0524,0,0,0,9.8623,2.3907q8.0691,0,12.9258-4.2578a14.1121,14.1121,0,0,0,4.8564-11.1329,15.9473,15.9473,0,0,0-3.5117-10.6093,13.7662,13.7662,0,0,0-9.6382-4.7813q-3.5866.2988-5.5288.2988-14.1987,0-23.9092-8.4433-9.7147-8.44-9.7129-20.8457,0-13.5968,9.5635-22.1914,9.561-8.59,24.8057-8.5918,4.0341,0,12.4023.748Q396.6455,56.0488,406.0605,56.0449Zm-47.22,21.668q0,12.7031,5.6782,21.8906,5.6771,9.1905,13.4488,9.1914a13.36,13.36,0,0,0,10.9087-4.9316q4.0341-4.9306,4.0341-12.7012,0-12.7-5.6035-21.8164-5.6037-9.1143-14.27-9.1172a12.4926,12.4926,0,0,0-10.3852,4.8574Q358.84,69.9434,358.8408,77.7129Z" transform="translate(0.8335 -15.264)"/><path class="a" d="M435.1978,129.2656a12.5578,12.5578,0,0,1-8.3682-2.7636,9.6768,9.6768,0,0,1-3.2876-7.8458q0-5.2294,3.2876-7.9941a12.5579,12.5579,0,0,1,8.3682-2.7637,12.3394,12.3394,0,0,1,8.2187,2.7637q3.2849,2.7657,3.2876,7.9941a9.6844,9.6844,0,0,1-3.2876,7.8458A12.3393,12.3393,0,0,1,435.1978,129.2656Z" transform="translate(0.8335 -15.264)"/></svg>